<?xml version="1.0" encoding="UTF-8"?>
<!DOCTYPE svg PUBLIC "-//W3C//DTD SVG 1.1//EN" "http://www.w3.org/Graphics/SVG/1.1/DTD/svg11.dtd">
<!-- Creator: CorelDRAW -->
<svg xmlns="http://www.w3.org/2000/svg" xml:space="preserve" width="90mm" height="93.3567mm" version="1.1" style="shape-rendering:geometricPrecision; text-rendering:geometricPrecision; image-rendering:optimizeQuality; fill-rule:evenodd; clip-rule:evenodd"
viewBox="0 0 161.65 167.68"
 xmlns:xlink="http://www.w3.org/1999/xlink"
 xmlns:xodm="http://www.corel.com/coreldraw/odm/2003">
 <defs>
  <style type="text/css">
   <![CDATA[
    .fil0 {fill:white}
   ]]>
  </style>
 </defs>
 <g id="Capa_x0020_1">
  <metadata id="CorelCorpID_0Corel-Layer"/>
  <path class="fil0" d="M82.72 0.78l16.41 16.41c1.04,1.04 1.04,2.75 0,3.8l-50.09 50.09c-1.04,1.04 -2.75,1.04 -3.8,0l-16.41 -16.41c-1.04,-1.04 -1.04,-2.75 0,-3.79l50.09 -50.09c1.04,-1.04 2.75,-1.04 3.8,0zm-3.8 117.44l0 0c1.04,1.04 2.75,1.04 3.79,0l0 0 56.82 -56.82c1.04,-1.04 2.75,-1.04 3.8,0l16.41 16.41c1.04,1.04 1.04,2.75 0,3.8l-77.03 77.03c-0.23,0.23 -0.49,0.41 -0.77,0.53l0 0c-0.02,0.01 -0.04,0.02 -0.06,0.03l0 0c-0.08,0.03 -0.16,0.07 -0.24,0.09l0 0c-0.04,0.01 -0.08,0.03 -0.12,0.04l0 -0c-0.04,0.01 -0.08,0.02 -0.13,0.03 -0.02,0 -0.04,0.01 -0.06,0.01 -0.06,0.01 -0.13,0.02 -0.19,0.03l0 0c-0.02,0 -0.04,0 -0.06,0.01 -0.02,0 -0.04,0 -0.06,0.01 -0.02,0 -0.04,0 -0.06,0 -0.02,0 -0.04,0 -0.06,0 -0.02,0 -0.04,0 -0.06,0l0 -0c-0.11,0 -0.21,-0.01 -0.32,-0.02l-0 0c-0.02,-0 -0.04,-0.01 -0.06,-0.01 -0.02,-0 -0.04,-0.01 -0.06,-0.01 -0.06,-0.01 -0.13,-0.02 -0.19,-0.04 -0.02,-0.01 -0.04,-0.01 -0.06,-0.02l-0 -0c-0.02,-0.01 -0.04,-0.01 -0.06,-0.02 -0.02,-0.01 -0.04,-0.01 -0.06,-0.02l-0 0c-0.02,-0.01 -0.04,-0.01 -0.06,-0.02 -0.02,-0.01 -0.04,-0.01 -0.06,-0.02 -0.02,-0.01 -0.04,-0.02 -0.06,-0.02 -0.02,-0.01 -0.04,-0.02 -0.06,-0.03l0 0c-0.02,-0.01 -0.04,-0.02 -0.06,-0.03l0 0c-0.02,-0.01 -0.04,-0.02 -0.06,-0.03 -0.02,-0.01 -0.04,-0.02 -0.06,-0.03 -0.02,-0.01 -0.04,-0.02 -0.06,-0.03 -0.02,-0.01 -0.04,-0.02 -0.06,-0.03 -0.02,-0.01 -0.04,-0.02 -0.06,-0.03 -0.02,-0.01 -0.04,-0.02 -0.06,-0.04 -0.02,-0.01 -0.04,-0.02 -0.06,-0.04 -0.02,-0.01 -0.04,-0.03 -0.05,-0.04 -0.02,-0.01 -0.04,-0.03 -0.05,-0.04 -0.02,-0.01 -0.04,-0.03 -0.05,-0.04 -0.02,-0.01 -0.04,-0.03 -0.05,-0.04 -0.02,-0.01 -0.03,-0.03 -0.05,-0.05 -0.02,-0.02 -0.03,-0.03 -0.05,-0.05 -0.02,-0.02 -0.03,-0.03 -0.05,-0.05l-16.41 -16.41 -60.62 -60.62c-1.04,-1.04 -1.04,-2.75 0,-3.8l16.41 -16.41c1.04,-1.04 2.75,-1.04 3.8,0l56.82 56.82zm46.31 46.77c0,1.47 1.2,2.68 2.68,2.68l31.05 0c1.47,-0 2.68,-1.21 2.68,-2.68l0 -62.39c0,-0.74 -0.3,-1.41 -0.79,-1.9l-35.62 35.62 0 28.67zm-88.83 0c0,1.47 -1.2,2.68 -2.68,2.68l-31.05 0c-1.47,-0 -2.68,-1.21 -2.68,-2.68l0 -62.39c0,-0.74 0.3,-1.41 0.79,-1.9l35.62 35.62 0 28.67zm76.62 -133.9l16.41 16.41c1.04,1.04 1.04,2.75 0,3.8l-50.09 50.09c-1.04,1.04 -2.75,1.04 -3.8,0l-16.41 -16.41c-1.04,-1.04 -1.04,-2.75 0,-3.8l50.09 -50.09c1.04,-1.04 2.75,-1.04 3.79,0z"/>
 </g>
</svg>
